<svg width="40" height="40" xmlns="http://www.w3.org/2000/svg">
  <path d="M20 0C8.955 0 0 9.1792 0 20.5005c0 9.059 5.73 16.7417 13.678 19.452.9997.1876 1.3647-.4455 1.3647-.986 0-.488-.0183-2.1046-.028-3.8163-5.5616 1.2387-6.7371-2.4175-6.7371-2.4175-.9106-2.3673-2.2205-2.998-2.2205-2.998-1.8176-1.2712.1379-1.2462.1379-1.2462 2.008.1426 3.0652 2.1121 3.0652 2.1121 1.7847 3.1331 4.6827 2.2272 5.8203 1.7017.1818-1.3213.6994-2.2272 1.2696-2.7377-4.4397-.518-9.1101-2.2773-9.1101-10.1327 0-2.2397.78-4.0665 2.0569-5.5017-.2039-.5206-.8924-2.6064.1977-5.428 0 0 1.6773-.5505 5.5005 2.1022 1.5942-.4567 3.3044-.682 5.0049-.6895 1.6992.0075 3.4106.2353 5.0073.692 3.816-2.6552 5.4956-2.1022 5.4956-2.1022 1.0938 2.8241.4053 4.9074.2002 5.4255 1.2817 1.4352 2.0557 3.262 2.0557 5.5017 0 7.8754-4.6777 9.6096-9.1333 10.1176.7202.6357 1.3574 1.882 1.3574 3.7938 0 2.7403-.0268 4.95-.0268 5.6257 0 .5455.3637 1.1836 1.377.9834C34.2748 37.2372 40 29.5546 40 20.5005 40 9.1792 31.045 0 20 0z" fill="#000" fill-rule="nonzero" opacity=".9"/>
</svg>
