<svg width="40" height="40" xmlns="http://www.w3.org/2000/svg">
  <g fill-rule="nonzero" fill="none" opacity=".9">
    <circle cx="19.9962" cy="19.9852" r="19.9661" fill="#2DAAE1"/>
    <path d="M32.7982 12.043a10.4871 10.4871 0 0 1-3.0168.8274c1.0854-.65 1.917-1.68 2.3095-2.9058a10.4936 10.4936 0 0 1-3.3362 1.2747 5.2445 5.2445 0 0 0-3.834-1.658c-2.8998 0-5.2516 2.3508-5.2516 5.2523 0 .4111.0463.8122.1353 1.1973-4.3653-.2194-8.2355-2.3104-10.826-5.4878-.4524.776-.7113 1.6783-.7113 2.6409 0 1.822.9274 3.4296 2.3366 4.3713a5.2286 5.2286 0 0 1-2.3795-.6567v.0664c0 2.5451 1.8102 4.6673 4.2132 5.15a5.2254 5.2254 0 0 1-1.384.184 5.331 5.331 0 0 1-.9887-.0924c.6685 2.086 2.6082 3.6045 4.906 3.6474-1.7976 1.4091-4.0627 2.2491-6.5228 2.2491a10.477 10.477 0 0 1-1.2537-.0748c2.3249 1.4907 5.0852 2.361 8.0515 2.361 9.6607 0 14.9443-8.0036 14.9443-14.9444 0-.2278-.005-.454-.016-.6793a10.702 10.702 0 0 0 2.6242-2.7226z" fill="#FFF"/>
  </g>
</svg>
